<svg xmlns="http://www.w3.org/2000/svg" xmlns:xlink="http://www.w3.org/1999/xlink" xmlns:lucid="lucid" width="244.38" height="194.22"><g transform="translate(20 20)" lucid:page-tab-id="0_0"><path d="M187.4 0H112L94.83 30.84H0v123.38h204.38V0zm0 30.84h-66.6l8.98-15.42h57.63z" stroke="#000" stroke-opacity="0" stroke-width="4.69" fill="#7ab648"/><path d="M0 40.78c0-3.32 2.7-6 6-6h192.38c3.3 0 6 2.68 6 6v107.44c0 3.3-2.7 6-6 6H6c-3.3 0-6-2.7-6-6z" stroke="#000" stroke-opacity="0" stroke-width="3" fill="#fff" fill-opacity="0"/><use xlink:href="#a" transform="matrix(1,0,0,1,5,39.77604166666677) translate(63.12654320987661 79.8819444444443)"/><defs><path fill="#333" d="M240-174c0 40-23 61-54 70L253 0h-59l-57-94H76V0H24v-248c93 4 217-23 216 74zM76-134c48-2 112 12 112-38 0-48-66-32-112-35v73" id="b"/><use transform="matrix(0.2654320987654316,0,0,0.2654320987654316,0,0)" xlink:href="#b" id="a"/></defs></g></svg>