<svg xmlns="http://www.w3.org/2000/svg" xmlns:xlink="http://www.w3.org/1999/xlink" xmlns:lucid="lucid" width="244.38" height="194.22"><g transform="translate(20 20)" lucid:page-tab-id="0_0"><path d="M187.4 0H112L94.83 30.84H0v123.38h204.38V0zm0 30.84h-66.6l8.98-15.42h57.63z" stroke="#000" stroke-opacity="0" stroke-width="4.69" fill="#b391b5"/><path d="M0 40.78c0-3.32 2.7-6 6-6h192.38c3.3 0 6 2.68 6 6v107.44c0 3.3-2.7 6-6 6H6c-3.3 0-6-2.7-6-6z" stroke="#000" stroke-opacity="0" stroke-width="3" fill="#fff" fill-opacity="0"/><use xlink:href="#a" transform="matrix(1,0,0,1,5,39.77604166666677) translate(65.64814814814821 79.8819444444443)"/><defs><path fill="#333" d="M24-248c93 1 206-16 204 79-1 75-69 88-152 82V0H24v-248zm52 121c47 0 100 7 100-41 0-47-54-39-100-39v80" id="b"/><use transform="matrix(0.2654320987654316,0,0,0.2654320987654316,0,0)" xlink:href="#b" id="a"/></defs></g></svg>