<svg xmlns="http://www.w3.org/2000/svg" xmlns:xlink="http://www.w3.org/1999/xlink" xmlns:lucid="lucid" width="244.38" height="237.53"><g transform="translate(20 20)" lucid:page-tab-id="0_0"><path d="M189.66 0h-65l-14.7 30.84h-83.2v123.38H204.4V0zm0 137.25H42.92V46.27h146.74zm0-106.4h-57.84l6.95-15.43h50.07v15.42z" stroke="#000" stroke-opacity="0" stroke-width="4.69" fill="#b391b5"/><path d="M177.6 60.15H0l26.77 94.07h177.6L177.6 60.15z" stroke="#000" stroke-opacity="0" stroke-width="4.69" fill="#b391b5"/><path d="M10.5 88.08c-.86-3.2 1.02-6.5 4.22-7.37l143.5-39.12c3.2-.87 6.5 1 7.38 4.2l28.27 103.67c.87 3.2-1.02 6.5-4.2 7.36L46.13 195.96c-3.2.87-6.5-1-7.37-4.2z" stroke="#000" stroke-opacity="0" stroke-width="3" fill="#fff" fill-opacity="0"/><use xlink:href="#a" transform="matrix(0.9647734501025877,-0.263082097409059,0.263082097409059,0.9647734501025877,15.068646544373582,85.80045607648134) translate(48.092592592592666 72.6527777777776)"/><defs><path fill="#333" d="M24-248c93 1 206-16 204 79-1 75-69 88-152 82V0H24v-248zm52 121c47 0 100 7 100-41 0-47-54-39-100-39v80" id="b"/><use transform="matrix(0.22839506172839444,0,0,0.22839506172839444,0,0)" xlink:href="#b" id="a"/></defs></g></svg>