<?xml version='1.0' encoding='utf-8'?>
<!DOCTYPE svg PUBLIC '-//W3C//DTD SVG 1.1//EN' 'http://www.w3.org/Graphics/SVG/1.1/DTD/svg11.dtd'>
<svg version="1.1" xmlns="http://www.w3.org/2000/svg" viewBox="0 0 512 512" xmlns:xlink="http://www.w3.org/1999/xlink" enable-background="new 0 0 512 512">
  <g>
    <g>
      <path d="m497.6,244.7c-63.9-96.7-149.7-150-241.6-150-91.9,1.42109e-14-177.7,53.3-241.6,150-4.5,6.8-4.5,15.7 0,22.5 63.9,96.7 149.7,150 241.6,150 91.9,0 177.7-53.3 241.6-150 4.5-6.8 4.5-15.6 0-22.5zm-241.6,131.7c-74.2,0-144.8-42.6-199.9-120.4 55-77.8 125.6-120.4 199.9-120.4 74.2,0 144.8,42.6 199.9,120.4-55.1,77.8-125.6,120.4-199.9,120.4z"/>
      <path d="m256,148.5c-59.3,0-107.5,48.2-107.5,107.5 0,59.3 48.2,107.5 107.5,107.5s107.5-48.2 107.5-107.5c0-59.3-48.2-107.5-107.5-107.5zm0,175.5c-36.8,0-66.8-30.5-66.8-68 0-37.5 30-68 66.8-68 36.8,0 66.8,30.5 66.8,68 0,37.5-30,68-66.8,68z"/>
    </g>
  </g>
</svg>
